<mxfile host="app.diagrams.net" modified="2021-08-18T07:34:13.469Z" agent="5.0 (Macintosh; Intel Mac OS X 10_15_7) AppleWebKit/537.36 (KHTML, like Gecko) Chrome/92.0.4515.159 Safari/537.36" etag="xkzZ2HT60Snbcs66ncpI" version="14.9.7" type="github">
  <diagram id="kgpKYQtTHZ0yAKxKKP6v" name="Page-1">
    <mxGraphModel dx="582" dy="663" grid="1" gridSize="10" guides="1" tooltips="1" connect="1" arrows="1" fold="1" page="1" pageScale="1" pageWidth="850" pageHeight="1100" math="0" shadow="0">
      <root>
        <mxCell id="0" />
        <mxCell id="1" parent="0" />
        <mxCell id="3nuBFxr9cyL0pnOWT2aG-1" value="resctl" style="shape=umlLifeline;perimeter=lifelinePerimeter;container=1;collapsible=0;recursiveResize=0;rounded=0;shadow=0;strokeWidth=1;" parent="1" vertex="1">
          <mxGeometry x="120" y="80" width="100" height="400" as="geometry" />
        </mxCell>
        <mxCell id="N36mtjdbT1QkHa601l1j-33" value="" style="points=[];perimeter=orthogonalPerimeter;rounded=0;shadow=0;strokeWidth=1;" vertex="1" parent="3nuBFxr9cyL0pnOWT2aG-1">
          <mxGeometry x="45" y="220" width="10" height="140" as="geometry" />
        </mxCell>
        <mxCell id="N36mtjdbT1QkHa601l1j-37" value="" style="edgeStyle=segmentEdgeStyle;endArrow=classic;html=1;" edge="1" parent="3nuBFxr9cyL0pnOWT2aG-1">
          <mxGeometry width="50" height="50" relative="1" as="geometry">
            <mxPoint x="55" y="293.49" as="sourcePoint" />
            <mxPoint x="55" y="266.49" as="targetPoint" />
            <Array as="points">
              <mxPoint x="98" y="293.49" />
              <mxPoint x="98" y="266.49" />
            </Array>
          </mxGeometry>
        </mxCell>
        <mxCell id="N36mtjdbT1QkHa601l1j-38" value="&amp;nbsp; 8.修改文件对象" style="edgeLabel;html=1;align=center;verticalAlign=middle;resizable=0;points=[];" vertex="1" connectable="0" parent="N36mtjdbT1QkHa601l1j-37">
          <mxGeometry x="-0.013" y="1" relative="1" as="geometry">
            <mxPoint x="53" y="-1" as="offset" />
          </mxGeometry>
        </mxCell>
        <mxCell id="3nuBFxr9cyL0pnOWT2aG-5" value="fs" style="shape=umlLifeline;perimeter=lifelinePerimeter;container=1;collapsible=0;recursiveResize=0;rounded=0;shadow=0;strokeWidth=1;" parent="1" vertex="1">
          <mxGeometry x="300" y="80" width="100" height="400" as="geometry" />
        </mxCell>
        <mxCell id="N36mtjdbT1QkHa601l1j-8" value="用户" style="shape=umlActor;verticalLabelPosition=bottom;verticalAlign=top;html=1;outlineConnect=0;" vertex="1" parent="1">
          <mxGeometry x="20" y="80" width="30" height="60" as="geometry" />
        </mxCell>
        <mxCell id="N36mtjdbT1QkHa601l1j-14" value="3.返回文件" style="verticalAlign=bottom;endArrow=open;dashed=1;endSize=8;shadow=0;strokeWidth=1;" edge="1" parent="1" source="N36mtjdbT1QkHa601l1j-23">
          <mxGeometry relative="1" as="geometry">
            <mxPoint x="357" y="210" as="targetPoint" />
            <mxPoint x="420" y="229.71" as="sourcePoint" />
            <Array as="points">
              <mxPoint x="410" y="210" />
            </Array>
          </mxGeometry>
        </mxCell>
        <mxCell id="N36mtjdbT1QkHa601l1j-18" value="" style="endArrow=none;dashed=1;html=1;" edge="1" parent="1">
          <mxGeometry width="50" height="50" relative="1" as="geometry">
            <mxPoint x="34.71" y="480" as="sourcePoint" />
            <mxPoint x="34.71" y="170" as="targetPoint" />
          </mxGeometry>
        </mxCell>
        <mxCell id="N36mtjdbT1QkHa601l1j-19" value="1.启动变更流程" style="verticalAlign=bottom;endArrow=block;shadow=0;strokeWidth=1;" edge="1" parent="1" target="N36mtjdbT1QkHa601l1j-15">
          <mxGeometry relative="1" as="geometry">
            <mxPoint x="30" y="170" as="sourcePoint" />
            <mxPoint x="215" y="170" as="targetPoint" />
          </mxGeometry>
        </mxCell>
        <mxCell id="N36mtjdbT1QkHa601l1j-15" value="" style="points=[];perimeter=orthogonalPerimeter;rounded=0;shadow=0;strokeWidth=1;" vertex="1" parent="1">
          <mxGeometry x="345" y="170" width="10" height="110" as="geometry" />
        </mxCell>
        <mxCell id="N36mtjdbT1QkHa601l1j-21" value="git" style="shape=umlLifeline;perimeter=lifelinePerimeter;container=1;collapsible=0;recursiveResize=0;rounded=0;shadow=0;strokeWidth=1;" vertex="1" parent="1">
          <mxGeometry x="465" y="80" width="100" height="400" as="geometry" />
        </mxCell>
        <mxCell id="N36mtjdbT1QkHa601l1j-42" value="" style="points=[];perimeter=orthogonalPerimeter;rounded=0;shadow=0;strokeWidth=1;" vertex="1" parent="N36mtjdbT1QkHa601l1j-21">
          <mxGeometry x="45" y="320" width="10" height="30" as="geometry" />
        </mxCell>
        <mxCell id="N36mtjdbT1QkHa601l1j-22" value="2.git clone" style="verticalAlign=bottom;endArrow=block;shadow=0;strokeWidth=1;entryX=0.086;entryY=-0.001;entryDx=0;entryDy=0;entryPerimeter=0;" edge="1" parent="1" target="N36mtjdbT1QkHa601l1j-23">
          <mxGeometry relative="1" as="geometry">
            <mxPoint x="357.5" y="180" as="sourcePoint" />
            <mxPoint x="472.5" y="180" as="targetPoint" />
          </mxGeometry>
        </mxCell>
        <mxCell id="N36mtjdbT1QkHa601l1j-23" value="" style="points=[];perimeter=orthogonalPerimeter;rounded=0;shadow=0;strokeWidth=1;" vertex="1" parent="1">
          <mxGeometry x="510" y="180" width="10" height="30" as="geometry" />
        </mxCell>
        <mxCell id="N36mtjdbT1QkHa601l1j-29" value="" style="edgeStyle=segmentEdgeStyle;endArrow=classic;html=1;" edge="1" parent="1">
          <mxGeometry width="50" height="50" relative="1" as="geometry">
            <mxPoint x="355" y="264.99" as="sourcePoint" />
            <mxPoint x="355" y="234.99" as="targetPoint" />
            <Array as="points">
              <mxPoint x="395" y="264.99" />
              <mxPoint x="395" y="234.99" />
            </Array>
          </mxGeometry>
        </mxCell>
        <mxCell id="N36mtjdbT1QkHa601l1j-30" value="5.保存git clone下来的文件" style="edgeLabel;html=1;align=center;verticalAlign=middle;resizable=0;points=[];" vertex="1" connectable="0" parent="N36mtjdbT1QkHa601l1j-29">
          <mxGeometry x="-0.013" y="1" relative="1" as="geometry">
            <mxPoint x="76" y="-1" as="offset" />
          </mxGeometry>
        </mxCell>
        <mxCell id="N36mtjdbT1QkHa601l1j-32" value="4.clone失败" style="verticalAlign=bottom;endArrow=open;shadow=0;strokeWidth=1;dashed=1;" edge="1" parent="1">
          <mxGeometry relative="1" as="geometry">
            <mxPoint x="345" y="280" as="sourcePoint" />
            <mxPoint x="40" y="280" as="targetPoint" />
          </mxGeometry>
        </mxCell>
        <mxCell id="N36mtjdbT1QkHa601l1j-34" value="" style="points=[];perimeter=orthogonalPerimeter;rounded=0;shadow=0;strokeWidth=1;" vertex="1" parent="1">
          <mxGeometry x="345" y="300" width="10" height="20" as="geometry" />
        </mxCell>
        <mxCell id="N36mtjdbT1QkHa601l1j-35" value="6.读取文件" style="verticalAlign=bottom;endArrow=block;shadow=0;strokeWidth=1;exitX=0.843;exitY=-0.001;exitDx=0;exitDy=0;exitPerimeter=0;" edge="1" parent="1" source="N36mtjdbT1QkHa601l1j-33">
          <mxGeometry relative="1" as="geometry">
            <mxPoint x="180" y="300" as="sourcePoint" />
            <mxPoint x="345" y="300" as="targetPoint" />
            <Array as="points">
              <mxPoint x="250" y="300" />
            </Array>
          </mxGeometry>
        </mxCell>
        <mxCell id="N36mtjdbT1QkHa601l1j-36" value="7.返回文件" style="verticalAlign=bottom;endArrow=open;dashed=1;endSize=8;shadow=0;strokeWidth=1;entryX=1.014;entryY=0.142;entryDx=0;entryDy=0;entryPerimeter=0;" edge="1" parent="1" target="N36mtjdbT1QkHa601l1j-33">
          <mxGeometry relative="1" as="geometry">
            <mxPoint x="180" y="320" as="targetPoint" />
            <mxPoint x="344" y="320" as="sourcePoint" />
            <Array as="points">
              <mxPoint x="233" y="320" />
            </Array>
          </mxGeometry>
        </mxCell>
        <mxCell id="N36mtjdbT1QkHa601l1j-39" value="" style="points=[];perimeter=orthogonalPerimeter;rounded=0;shadow=0;strokeWidth=1;" vertex="1" parent="1">
          <mxGeometry x="345" y="390" width="10" height="30" as="geometry" />
        </mxCell>
        <mxCell id="N36mtjdbT1QkHa601l1j-40" value="9.保存修改" style="verticalAlign=bottom;endArrow=block;shadow=0;strokeWidth=1;" edge="1" parent="1">
          <mxGeometry relative="1" as="geometry">
            <mxPoint x="176" y="390" as="sourcePoint" />
            <mxPoint x="345" y="390.11" as="targetPoint" />
            <Array as="points">
              <mxPoint x="250" y="390.11" />
            </Array>
          </mxGeometry>
        </mxCell>
        <mxCell id="N36mtjdbT1QkHa601l1j-41" value="10.修改上传到git" style="verticalAlign=bottom;endArrow=block;shadow=0;strokeWidth=1;entryX=-0.114;entryY=-0.005;entryDx=0;entryDy=0;entryPerimeter=0;" edge="1" parent="1" target="N36mtjdbT1QkHa601l1j-42">
          <mxGeometry relative="1" as="geometry">
            <mxPoint x="355" y="400" as="sourcePoint" />
            <mxPoint x="500" y="400" as="targetPoint" />
            <Array as="points">
              <mxPoint x="429" y="400.11" />
            </Array>
          </mxGeometry>
        </mxCell>
        <mxCell id="N36mtjdbT1QkHa601l1j-43" value="11.保存失败" style="verticalAlign=bottom;endArrow=open;shadow=0;strokeWidth=1;dashed=1;" edge="1" parent="1">
          <mxGeometry x="-0.4426" relative="1" as="geometry">
            <mxPoint x="345" y="420" as="sourcePoint" />
            <mxPoint x="40" y="420" as="targetPoint" />
            <mxPoint as="offset" />
          </mxGeometry>
        </mxCell>
      </root>
    </mxGraphModel>
  </diagram>
</mxfile>
